<?xml version="1.0" encoding="UTF-8"?><svg id="Layer_2" xmlns="http://www.w3.org/2000/svg" viewBox="0 0 2680.22 337.3"><defs><style>.cls-1{letter-spacing:0em;}.cls-2{fill:#c7244d;}.cls-3{fill:#262324;}.cls-4{letter-spacing:.04em;}.cls-5{font-family:Darkmode-DarkmodeOffBlack, Darkmode;font-size:157.58px;font-weight:800;}</style></defs><g id="FULL_LOGO_H"><path class="cls-3" d="m138.38,219.25c-4.86-24.45-12.34-48.01-14.8-71.84-2.36-22.97-1.76-42.29,1.54-63.5,1.17-7.51,5.3-11,10.56-9.99,4.88.94,7.98,5.39,6.79,11.92-6.46,35.48.03,69.91,7.76,104.32,5.21,23.22,10.27,46.49,9.56,70.52-.62,21.12-8.55,39.08-23.53,53.97-3.87,3.85-8.19,6.63-13.59,2.64-4.1-3.03-5.39-6.82-2.32-11.38.41-.61.82-1.24,1.35-1.73,21.62-20.08,23.02-45.34,18.71-72.07-.64-3.97-1.19-7.96-2.02-12.85Z"/><path class="cls-3" d="m160.96,116.59c-4.39-38.64,5.9-73.38,21.29-107.11.91-1.99,2.23-4.65,3.58-6.32,2.59-3.19,4.88-3.91,9.25-2.43,3.23,1.09,6.98,3.74,5.38,9.86-.44,1.68-.81,3.49-1.57,5.13-8.5,18.31-14.28,37.44-19.74,56.86-3.9,13.85-3.17,27.4-2.25,40.89.8,11.75,2.39,18.67,5.16,30.28,2.19,9.17,3.34,13.61,5.56,29.34,2.69,19.1,2.59,32.77,2.59,55.08,0,6.44-1.5,19.53-2.62,21.11-2.17,3.09-4.31,3.9-7.88,3.9-2.18,0-5.13-2.29-6.48-4.39-1.41-2.2-.67-10.45-.38-13.18,3.35-31.61-.62-64.21-8.36-98.62-1.44-6.41-2.5-13.18-3.54-20.42Z"/><path class="cls-2" d="m24.58,287.11c14.08,28.52,39.08,37.28,69.47,32.52,2.18-.34,4.35-1.12,6.51-1.07,4.78.1,7.46,3.3,8.15,7.51.74,4.54-1.77,7.99-6.29,8.94C50.36,345.98,3.44,317.04.22,260.22c-.25-4.38-.28-8.78-.12-13.16.29-8.02,2.93-11.42,8.69-11.65,5.57-.22,6.25,4.55,6.56,12.53.31,8.02.46,15.82,2.45,23.55,1.78,6.9,4,9.97,6.79,15.62Z"/><rect class="cls-3" x="194.54" y="73.63" width="69.68" height="16.32" rx="8.02" ry="8.02"/><rect class="cls-3" x="39.16" y="73.65" width="69.68" height="16.27" rx="7.99" ry="7.99"/><text class="cls-5" transform="translate(328.95 235.07)"><tspan class="cls-1" x="0" y="0">J</tspan><tspan class="cls-4" x="73.43" y="0">ASMINE FIELD O</tspan><tspan class="cls-1" x="1439.51" y="0">R</tspan><tspan class="cls-4" x="1552.5" y="0">CHESTRA</tspan></text></g></svg>