<?xml version="1.0" encoding="UTF-8"?><svg id="Layer_2" xmlns="http://www.w3.org/2000/svg" viewBox="0 0 1760.3 2247.23"><defs><style>.cls-1{fill:#fff;}</style></defs><g id="ICON_LOGO_WHITE"><path class="cls-1" d="m921.91,1460.7c-32.39-162.87-82.25-319.83-98.57-478.62-15.73-153.01-11.69-281.72,10.26-423.09,7.76-50,35.3-73.26,70.34-66.54,32.54,6.23,53.14,35.92,45.23,79.39-43.01,236.35.22,465.77,51.7,695.03,34.73,154.69,68.4,309.7,63.69,469.83-4.14,140.74-56.98,260.33-156.78,359.58-25.76,25.62-54.55,44.17-90.55,17.6-27.35-20.18-35.91-45.44-15.47-75.84,2.72-4.04,5.44-8.28,8.97-11.56,144.01-133.79,153.33-302.05,124.62-480.14-4.27-26.46-7.93-53.02-13.46-85.64Z"/><path class="cls-1" d="m1072.37,776.75c-29.23-257.4,39.33-488.89,141.85-713.57,6.04-13.23,14.86-30.95,23.88-42.08,17.24-21.26,32.48-26.05,61.64-16.18,21.53,7.29,46.5,24.92,35.81,65.72-2.94,11.21-5.37,23.26-10.44,34.2-56.63,121.96-95.11,249.46-131.5,378.84-25.96,92.29-21.09,182.53-14.96,272.45,5.34,78.28,15.95,124.42,34.37,201.72,14.56,61.12,22.28,90.7,37.03,195.45,17.92,127.28,17.25,218.34,17.25,366.97,0,42.89-10.01,130.1-17.44,140.66-14.48,20.59-28.71,26-52.53,26-14.52,0-34.19-15.28-43.14-29.27-9.38-14.67-4.48-69.61-2.55-87.8,22.32-210.61-4.15-427.77-55.69-657.06-9.6-42.72-16.62-87.78-23.56-136.05Z"/><path class="cls-1" d="m163.75,1912.78c111.74,180.01,260.38,248.4,462.81,216.69,14.51-2.27,28.99-7.45,43.39-7.13,31.86.7,49.71,21.96,54.3,50.06,4.94,30.27-11.79,53.22-41.89,59.56C335.53,2305,22.95,2112.22,1.47,1733.65c-1.65-29.16-1.89-58.51-.83-87.7,1.93-53.42,19.54-76.1,57.88-77.63,37.14-1.48,54.62,23.29,56.7,76.5,2.09,53.4,2.2,107.3,10.33,159.9,5.46,35.34,23.35,68.78,38.21,108.06Z"/><rect class="cls-1" x="1296.09" y="490.52" width="464.22" height="108.75" rx="51" ry="51"/><rect class="cls-1" x="260.89" y="490.69" width="464.22" height="108.41" rx="54.21" ry="54.21"/></g></svg>